# xmcd
#
# Track frame offsets:
# 150
# 10181
# 22935
# 33102
# 42879
# 53488
# 65170
# 83912
# 97210
# 111396
#
# Disc length: 1725 seconds
#
# Revision: 2
# Processed by: cddbd v1.5.1PL2 Copyright (c) Steve Scherf et al.
# Submitted via: Axialis_AX_CDPlayer 2.6
#
DISCID=7906bb0a
DTITLE=Various Artist - Roadrunner
DYEAR=1900
DGENRE=
TTITLE0=DAVE DUDLEY - Truck Drivin' Son of a Gun
TTITLE1=JONNY CARVER - Tie a Yellow Ribbon Round The Old Oak Tree
TTITLE2=WARNER MAC - The Bridge Washed Out
TTITLE3=RED SOVINE - King of The Open Road
TTITLE4=WILBERT HARRISON - Kansas City
TTITLE5=STANLEY BROTHERS - How Far to Little Rock
TTITLE6=TOMMY HILL'S MUSIC FESTIVAL - White Knight
TTITLE7=TINY HARRIS - Endless Black Ribbon
TTITLE8=BILLY WALKER - Way Out on a Moutain
TTITLE9=MINNE PEARL - Giddy-up -go Answer
EXTD=
EXTT0=
EXTT1=
EXTT2=
EXTT3=
EXTT4=
EXTT5=
EXTT6=
EXTT7=
EXTT8=
EXTT9=
PLAYORDER=
